<svg width="58" height="70" viewBox="0 0 58 70" fill="none" xmlns="http://www.w3.org/2000/svg">
<path d="M11.8503 69.2899C10.913 68.3353 10.9208 66.6868 11.8662 65.9225C12.2742 65.5927 13.5429 65.1506 14.6854 64.94C24.0318 63.2175 26.1291 51.8063 18.0791 46.4749C15.8193 44.9782 15.3237 43.5986 16.5847 42.3142C17.7286 41.1492 19.3382 41.4639 22.0868 43.39C27.5135 47.1928 29.4057 55.5772 26.2617 61.889C25.447 63.5247 24.7792 64.918 24.7779 64.9852C24.7767 65.0524 26.4169 65.1886 28.4232 65.2875C32.4831 65.4878 33.9592 66.6396 32.721 68.6412C32.1484 69.5669 30.849 69.7197 22.3214 69.8642C15.2439 69.9842 12.3775 69.827 11.8503 69.2899ZM37.3582 69.2762C36.2949 68.1933 36.4692 67.3499 38.4176 64.1477C39.392 62.5463 40.6363 59.3319 41.1828 57.0045C42.4337 51.6767 42.8352 51.1418 45.2383 51.601C49.3137 52.3797 53.2959 48.9931 53.2437 44.7929C53.2172 42.6729 52.5074 41.4332 48.9173 37.2387L46.0537 33.8929L40.8862 33.5928C34.5434 33.2244 30.1538 31.2588 26.2979 27.0602C22.9612 23.4269 21.4502 20.3633 20.5554 15.4171C19.9422 12.0274 19.9821 10.8451 20.8275 7.35579C21.8101 3.3001 22.4663 2.31373 24.1819 2.31373C25.4805 2.31373 25.7514 2.57577 31.906 9.7845L37.5259 16.367L37.9433 13.8769C38.6122 9.8857 40.5068 6.18982 43.3881 3.25515C46.3162 0.272742 48.616 -0.688496 50.008 0.488179C50.747 1.11282 50.8906 3.74875 50.8906 16.6877V32.1413L53.3725 35.1392C56.685 39.1403 58.0156 41.9445 57.9999 44.8907C57.9711 50.2576 53.6943 55.4865 48.6628 56.306C46.5342 56.6526 46.335 56.8714 45.4241 59.8625C44.8902 61.6154 44.2706 63.5257 44.0473 64.1076C43.6942 65.0276 44.0208 65.1655 46.5537 65.1655C48.1555 65.1655 49.7866 65.4919 50.1783 65.8909C51.2478 66.9802 51.0364 68.6706 49.7426 69.3759C48.1167 70.2621 38.2482 70.1827 37.3582 69.2762ZM40.6758 27.7518C38.7234 24.9127 25.7576 10.154 25.2158 10.154C24.1712 10.154 25.2366 16.214 26.8843 19.644C29.2658 24.6017 35.0984 28.7652 39.7956 28.8604C41.3124 28.8912 41.3912 28.7921 40.6758 27.7518ZM46.1423 16.7681C46.1423 7.47892 45.8691 6.60071 44.0769 10.1306C42.5165 13.2041 41.931 17.1738 42.594 20.1867C43.1873 22.8832 44.7925 25.8139 45.6972 25.8526C45.9421 25.864 46.1423 21.775 46.1423 16.7681ZM1.36472 67.449C0.856554 66.7101 0.440785 65.4104 0.440785 64.561C0.440785 61.9349 1.995 60.3293 4.53713 60.3293C7.24887 60.3293 8.948 61.9594 8.948 64.561C8.948 67.1625 7.24887 68.7926 4.53713 68.7926C2.88646 68.7926 2.04302 68.4354 1.36472 67.449ZM1.16165 57.3996C0.0125085 56.657 -0.338113 53.1603 0.354117 49.3464C2.17564 39.3103 9.78129 31.6397 19.4897 30.0472C23.4171 29.403 25.3689 30.0061 25.3689 31.864C25.3689 33.4579 24.2958 34.122 20.9175 34.6186C14.5442 35.5555 8.7534 39.9038 6.27307 45.6149C5.63711 47.0792 4.95924 50.2409 4.7667 52.6409C4.36972 57.5894 3.4118 58.8538 1.16165 57.3996ZM42.1197 46.0888C40.385 44.8512 40.2785 41.3117 41.9486 40.4014C45.3595 38.5421 48.7401 41.1428 47.3513 44.5577C46.9593 45.5216 46.0595 46.4684 45.3518 46.6617C43.5854 47.1443 43.6039 47.1476 42.1197 46.0888Z" fill="#6C5757"/>
</svg>
